<svg width="1924" height="5001" viewBox="0 0 1924 5001" fill="none" xmlns="http://www.w3.org/2000/svg">
<g filter="url(#filter0_f_871_83)">
<path d="M477.458 842.031C496.315 772.028 1032.52 -34.9638 1074.91 -51.8254C1117.29 -68.6869 1898.64 -133.24 2030.82 57.1815C2163.01 247.603 2024.29 1917.62 2030.82 2041.11C2037.36 2164.59 2089.63 3311.54 2090.57 3403.69C2091.5 3495.84 2234.89 4662.21 2150.31 4766.28C2065.74 4870.34 984.73 4640.24 883.723 4591.86C782.716 4543.49 970.167 3882.81 979.314 3839.72C988.462 3796.63 1149.77 3174.95 1074.91 3087.57C1000.04 3000.19 542.244 2128.82 477.458 2041.11C412.673 1953.39 458.601 912.033 477.458 842.031Z" fill="#5C5BB2" fill-opacity="0.4"/>
<path d="M477.458 842.031C496.315 772.028 1032.52 -34.9638 1074.91 -51.8254C1117.29 -68.6869 1898.64 -133.24 2030.82 57.1815C2163.01 247.603 2024.29 1917.62 2030.82 2041.11C2037.36 2164.59 2089.63 3311.54 2090.57 3403.69C2091.5 3495.84 2234.89 4662.21 2150.31 4766.28C2065.74 4870.34 984.73 4640.24 883.723 4591.86C782.716 4543.49 970.167 3882.81 979.314 3839.72C988.462 3796.63 1149.77 3174.95 1074.91 3087.57C1000.04 3000.19 542.244 2128.82 477.458 2041.11C412.673 1953.39 458.601 912.033 477.458 842.031Z" fill="black" fill-opacity="0.2"/>
<path d="M477.458 842.031C496.315 772.028 1032.52 -34.9638 1074.91 -51.8254C1117.29 -68.6869 1898.64 -133.24 2030.82 57.1815C2163.01 247.603 2024.29 1917.62 2030.82 2041.11C2037.36 2164.59 2089.63 3311.54 2090.57 3403.69C2091.5 3495.84 2234.89 4662.21 2150.31 4766.28C2065.74 4870.34 984.73 4640.24 883.723 4591.86C782.716 4543.49 970.167 3882.81 979.314 3839.72C988.462 3796.63 1149.77 3174.95 1074.91 3087.57C1000.04 3000.19 542.244 2128.82 477.458 2041.11C412.673 1953.39 458.601 912.033 477.458 842.031Z" stroke="black"/>
</g>
<defs>
<filter id="filter0_f_871_83" x="-556.5" y="-1076.5" width="3734" height="6870" filterUnits="userSpaceOnUse" color-interpolation-filters="sRGB">
<feFlood flood-opacity="0" result="BackgroundImageFix"/>
<feBlend mode="normal" in="SourceGraphic" in2="BackgroundImageFix" result="shape"/>
<feGaussianBlur stdDeviation="500" result="effect1_foregroundBlur_871_83"/>
</filter>
</defs>
</svg>
