<svg width="4962" height="6899" viewBox="0 0 4962 6899" fill="none" xmlns="http://www.w3.org/2000/svg">
<g filter="url(#filter0_d_925_4)">
<g filter="url(#filter1_f_925_4)">
<path d="M2261.46 1947.03C2280.32 1877.03 2816.52 1070.04 2858.91 1053.17C2901.29 1036.31 3682.64 971.76 3814.82 1162.18C3947.01 1352.6 3808.29 3022.62 3814.82 3146.11C3821.36 3269.59 3873.63 4416.54 3874.57 4508.69C3875.5 4600.84 4018.89 5767.21 3934.31 5871.28C3849.74 5975.34 2768.73 5745.24 2667.72 5696.86C2566.72 5648.49 2754.17 4987.81 2763.31 4944.72C2772.46 4901.63 2933.77 4279.95 2858.91 4192.57C2784.04 4105.19 2326.24 3233.82 2261.46 3146.11C2196.67 3058.39 2242.6 2017.03 2261.46 1947.03Z" fill="#5C5BB2" fill-opacity="0.4"/>
<path d="M2261.46 1947.03C2280.32 1877.03 2816.52 1070.04 2858.91 1053.17C2901.29 1036.31 3682.64 971.76 3814.82 1162.18C3947.01 1352.6 3808.29 3022.62 3814.82 3146.11C3821.36 3269.59 3873.63 4416.54 3874.57 4508.69C3875.5 4600.84 4018.89 5767.21 3934.31 5871.28C3849.74 5975.34 2768.73 5745.24 2667.72 5696.86C2566.72 5648.49 2754.17 4987.81 2763.31 4944.72C2772.46 4901.63 2933.77 4279.95 2858.91 4192.57C2784.04 4105.19 2326.24 3233.82 2261.46 3146.11C2196.67 3058.39 2242.6 2017.03 2261.46 1947.03Z" fill="black" fill-opacity="0.2"/>
<path d="M2261.46 1947.03C2280.32 1877.03 2816.52 1070.04 2858.91 1053.17C2901.29 1036.31 3682.64 971.76 3814.82 1162.18C3947.01 1352.6 3808.29 3022.62 3814.82 3146.11C3821.36 3269.59 3873.63 4416.54 3874.57 4508.69C3875.5 4600.84 4018.89 5767.21 3934.31 5871.28C3849.74 5975.34 2768.73 5745.24 2667.72 5696.86C2566.72 5648.49 2754.17 4987.81 2763.31 4944.72C2772.46 4901.63 2933.77 4279.95 2858.91 4192.57C2784.04 4105.19 2326.24 3233.82 2261.46 3146.11C2196.67 3058.39 2242.6 2017.03 2261.46 1947.03Z" stroke="black"/>
</g>
<g filter="url(#filter2_f_925_4)">
<path d="M2827.36 4897.81C2810.9 4968.42 2302.54 5793.23 2260.76 5811.53C2218.97 5829.83 1440.28 5921 1301.68 5735.2C1163.07 5549.4 1244.73 3875.62 1233.99 3752.43C1223.24 3629.24 1131.86 2484.74 1127.79 2392.68C1123.71 2300.62 940.61 1139.82 1021.59 1032.93C1102.56 926.034 2190.79 1119.12 2293.39 1164.02C2395.99 1208.92 2231.19 1875.61 2223.51 1918.99C2215.84 1962.37 2075.83 2589.19 2153.64 2673.96C2231.45 2758.73 2718.71 3613.98 2786.45 3699.43C2854.19 3784.89 2843.81 4827.21 2827.36 4897.81Z" fill="#7FB2FF" fill-opacity="0.4"/>
<path d="M2827.36 4897.81C2810.9 4968.42 2302.54 5793.23 2260.76 5811.53C2218.97 5829.83 1440.28 5921 1301.68 5735.2C1163.07 5549.4 1244.73 3875.62 1233.99 3752.43C1223.24 3629.24 1131.86 2484.74 1127.79 2392.68C1123.71 2300.62 940.61 1139.82 1021.59 1032.93C1102.56 926.034 2190.79 1119.12 2293.39 1164.02C2395.99 1208.92 2231.19 1875.61 2223.51 1918.99C2215.84 1962.37 2075.83 2589.19 2153.64 2673.96C2231.45 2758.73 2718.71 3613.98 2786.45 3699.43C2854.19 3784.89 2843.81 4827.21 2827.36 4897.81Z" fill="black" fill-opacity="0.2"/>
<path d="M2827.36 4897.81C2810.9 4968.42 2302.54 5793.23 2260.76 5811.53C2218.97 5829.83 1440.28 5921 1301.68 5735.2C1163.07 5549.4 1244.73 3875.62 1233.99 3752.43C1223.24 3629.24 1131.86 2484.74 1127.79 2392.68C1123.71 2300.62 940.61 1139.82 1021.59 1032.93C1102.56 926.034 2190.79 1119.12 2293.39 1164.02C2395.99 1208.92 2231.19 1875.61 2223.51 1918.99C2215.84 1962.37 2075.83 2589.19 2153.64 2673.96C2231.45 2758.73 2718.71 3613.98 2786.45 3699.43C2854.19 3784.89 2843.81 4827.21 2827.36 4897.81Z" stroke="black"/>
</g>
</g>
<defs>
<filter id="filter0_d_925_4" x="990" y="948" width="2975.5" height="4958.5" filterUnits="userSpaceOnUse" color-interpolation-filters="sRGB">
<feFlood flood-opacity="0" result="BackgroundImageFix"/>
<feColorMatrix in="SourceAlpha" type="matrix" values="0 0 0 0 0 0 0 0 0 0 0 0 0 0 0 0 0 0 127 0" result="hardAlpha"/>
<feOffset dy="4"/>
<feGaussianBlur stdDeviation="2"/>
<feComposite in2="hardAlpha" operator="out"/>
<feColorMatrix type="matrix" values="0 0 0 0 0 0 0 0 0 0 0 0 0 0 0 0 0 0 0.25 0"/>
<feBlend mode="normal" in2="BackgroundImageFix" result="effect1_dropShadow_925_4"/>
<feBlend mode="normal" in="SourceGraphic" in2="effect1_dropShadow_925_4" result="shape"/>
</filter>
<filter id="filter1_f_925_4" x="1227.5" y="28.5002" width="3734" height="6870" filterUnits="userSpaceOnUse" color-interpolation-filters="sRGB">
<feFlood flood-opacity="0" result="BackgroundImageFix"/>
<feBlend mode="normal" in="SourceGraphic" in2="BackgroundImageFix" result="shape"/>
<feGaussianBlur stdDeviation="500" result="effect1_foregroundBlur_925_4"/>
</filter>
<filter id="filter2_f_925_4" x="0.442383" y="0.620117" width="3839.63" height="6849.88" filterUnits="userSpaceOnUse" color-interpolation-filters="sRGB">
<feFlood flood-opacity="0" result="BackgroundImageFix"/>
<feBlend mode="normal" in="SourceGraphic" in2="BackgroundImageFix" result="shape"/>
<feGaussianBlur stdDeviation="500" result="effect1_foregroundBlur_925_4"/>
</filter>
</defs>
</svg>
