<svg width="1924" height="5001" viewBox="0 0 1924 5001" fill="none" xmlns="http://www.w3.org/2000/svg">
<g filter="url(#filter0_f_871_84)">
<path d="M1043.36 3792.81C1026.9 3863.42 518.537 4688.23 476.756 4706.53C434.974 4724.83 -343.717 4816 -482.323 4630.2C-620.928 4444.4 -539.268 2770.62 -550.013 2647.43C-560.759 2524.24 -652.136 1379.74 -656.214 1287.68C-660.293 1195.62 -843.39 34.8204 -762.415 -72.0725C-681.44 -178.966 406.788 14.1231 509.387 59.0211C611.986 103.919 447.186 770.612 439.514 813.992C431.842 857.371 291.835 1484.19 369.641 1568.96C447.447 1653.73 934.705 2508.98 1002.45 2594.43C1070.19 2679.89 1059.81 3722.21 1043.36 3792.81Z" fill="#7FB2FF" fill-opacity="0.4"/>
<path d="M1043.36 3792.81C1026.9 3863.42 518.537 4688.23 476.756 4706.53C434.974 4724.83 -343.717 4816 -482.323 4630.2C-620.928 4444.4 -539.268 2770.62 -550.013 2647.43C-560.759 2524.24 -652.136 1379.74 -656.214 1287.68C-660.293 1195.62 -843.39 34.8204 -762.415 -72.0725C-681.44 -178.966 406.788 14.1231 509.387 59.0211C611.986 103.919 447.186 770.612 439.514 813.992C431.842 857.371 291.835 1484.19 369.641 1568.96C447.447 1653.73 934.705 2508.98 1002.45 2594.43C1070.19 2679.89 1059.81 3722.21 1043.36 3792.81Z" fill="black" fill-opacity="0.2"/>
<path d="M1043.36 3792.81C1026.9 3863.42 518.537 4688.23 476.756 4706.53C434.974 4724.83 -343.717 4816 -482.323 4630.2C-620.928 4444.4 -539.268 2770.62 -550.013 2647.43C-560.759 2524.24 -652.136 1379.74 -656.214 1287.68C-660.293 1195.62 -843.39 34.8204 -762.415 -72.0725C-681.44 -178.966 406.788 14.1231 509.387 59.0211C611.986 103.919 447.186 770.612 439.514 813.992C431.842 857.371 291.835 1484.19 369.641 1568.96C447.447 1653.73 934.705 2508.98 1002.45 2594.43C1070.19 2679.89 1059.81 3722.21 1043.36 3792.81Z" stroke="black"/>
</g>
<defs>
<filter id="filter0_f_871_84" x="-1783.56" y="-1104.38" width="3839.63" height="6849.88" filterUnits="userSpaceOnUse" color-interpolation-filters="sRGB">
<feFlood flood-opacity="0" result="BackgroundImageFix"/>
<feBlend mode="normal" in="SourceGraphic" in2="BackgroundImageFix" result="shape"/>
<feGaussianBlur stdDeviation="500" result="effect1_foregroundBlur_871_84"/>
</filter>
</defs>
</svg>
